<?xml version="1.0" standalone="no"?>
<!DOCTYPE svg PUBLIC "-//W3C//DTD SVG 20010904//EN"
 "http://www.w3.org/TR/2001/REC-SVG-20010904/DTD/svg10.dtd">
<svg version="1.0" xmlns="http://www.w3.org/2000/svg"
 width="640.000000pt" height="480.000000pt" viewBox="0 0 640.000000 480.000000"
 preserveAspectRatio="xMidYMid meet">

<g transform="translate(0.000000,480.000000) scale(0.100000,-0.100000)"
fill="#000000" stroke="none">
<path d="M1304 4096 c-43 -19 -54 -58 -54 -191 l0 -113 -30 -12 c-46 -19 -70
-56 -70 -105 0 -52 27 -89 75 -105 134 -44 206 156 75 210 l-30 12 0 129 c0
177 -10 169 210 169 107 0 170 4 170 10 0 16 -308 12 -346 -4z"/>
<path d="M4495 4006 c-37 -16 -70 -52 -84 -89 -6 -16 -11 -87 -11 -158 l0
-129 -218 0 -217 0 -29 47 c-33 55 -26 59 -100 -60 l-42 -68 -53 85 c-29 47
-56 86 -59 86 -4 0 -30 -39 -59 -86 l-51 -86 -26 41 -26 41 -205 0 -205 0 0
119 c0 149 -1 151 -109 151 -73 0 -78 2 -89 25 -26 58 -112 35 -112 -30 0 -65
86 -88 112 -30 10 23 16 25 84 25 109 0 104 15 104 -291 0 -155 -4 -268 -10
-279 -7 -13 -7 -21 0 -25 5 -3 10 -27 10 -52 0 -26 3 -44 6 -40 3 3 6 98 5
211 l-1 206 199 0 199 0 29 -45 c15 -25 31 -45 35 -45 4 0 28 36 55 80 26 44
51 80 55 80 4 0 29 -36 55 -80 26 -43 52 -78 58 -76 5 1 32 39 60 84 l50 81
25 -40 25 -39 223 0 222 0 0 -413 c0 -459 -1 -450 69 -502 32 -23 43 -25 148
-25 108 0 113 -1 113 -21 0 -30 -29 -76 -57 -88 -15 -7 -110 -11 -253 -11
-147 0 -230 -4 -230 -10 0 -13 413 -13 461 0 47 13 85 52 93 95 l7 35 69 0 70
0 0 -74 c0 -41 5 -78 10 -81 6 -4 10 23 10 74 l0 81 314 0 c308 0 314 0 346
23 19 12 43 37 54 56 19 33 20 50 17 590 -2 437 -5 561 -16 581 -20 37 -57 69
-96 80 -20 6 -232 10 -519 10 -382 -1 -491 -4 -515 -14z m630 -219 c26 -7 60
-31 96 -67 69 -69 94 -132 87 -224 -7 -78 -34 -131 -108 -211 -40 -43 -61 -75
-65 -99 -7 -33 -10 -36 -41 -36 l-34 0 0 53 c0 73 13 111 59 171 47 62 61 115
37 151 -11 17 -26 25 -46 25 -38 0 -60 -24 -60 -64 0 -41 -23 -64 -45 -46 -8
7 -15 26 -15 43 0 64 -73 93 -106 42 -24 -37 -13 -82 40 -159 48 -70 59 -107
54 -171 -3 -37 -6 -40 -34 -43 -29 -3 -32 0 -38 33 -5 24 -26 55 -65 98 -74
79 -102 135 -109 213 -6 80 17 148 70 209 82 93 188 120 323 82z m-162 -264
c8 -10 17 -33 19 -52 7 -73 69 -66 79 8 8 63 54 83 84 37 13 -20 14 -32 6 -64
-6 -22 -18 -45 -27 -53 -38 -31 -68 -103 -73 -173 -6 -68 -7 -71 -33 -74 -28
-3 -28 -3 -28 58 0 70 -15 112 -64 175 -44 58 -53 97 -32 130 19 29 47 32 69
8z m167 -403 c0 -19 -7 -20 -110 -20 -103 0 -110 1 -110 20 0 19 7 20 110 20
103 0 110 -1 110 -20z m-5 -67 c-11 -47 -56 -84 -102 -85 -22 0 -49 6 -61 13
-21 13 -52 66 -52 88 0 7 37 11 111 11 l111 0 -7 -27z"/>
<path d="M752 3443 c-18 -9 -43 -30 -55 -47 l-22 -31 -3 -638 c-2 -634 -2
-639 19 -676 27 -49 71 -74 139 -81 l55 -5 3 -71 3 -72 -36 -22 c-19 -12 -35
-23 -35 -26 0 -2 28 -21 62 -43 l61 -39 -61 -38 c-34 -22 -62 -41 -62 -44 0
-3 28 -22 62 -44 l63 -38 -28 -14 -27 -15 0 -179 c0 -172 1 -180 23 -205 17
-20 35 -28 71 -32 28 -4 57 -14 67 -24 24 -24 45 -24 66 1 10 11 25 20 35 20
10 0 18 5 18 10 0 6 -7 10 -16 10 -9 0 -27 9 -40 19 -26 20 -59 18 -68 -5 -4
-9 -22 -14 -55 -14 -42 0 -53 4 -70 26 -19 25 -21 40 -21 193 l0 167 30 17
c17 10 30 22 30 27 0 5 -25 24 -55 42 -30 18 -55 36 -55 39 0 4 25 22 55 40
30 18 55 37 55 41 0 4 -26 24 -57 44 l-57 36 27 22 c25 20 27 27 27 99 l0 77
254 0 253 0 6 -71 c7 -80 26 -111 84 -135 37 -16 153 -19 153 -4 0 6 -30 10
-70 10 -38 0 -80 5 -93 11 -38 17 -57 60 -57 128 l0 60 444 3 c431 3 445 4
472 24 15 11 37 33 48 48 20 26 21 42 24 391 l3 364 122 4 122 3 -122 2 -123
2 0 215 0 215 75 0 c63 0 78 3 96 21 26 26 54 90 64 144 l7 40 -24 -34 c-13
-19 -36 -44 -51 -55 -28 -20 -38 -21 -425 -21 -397 0 -397 0 -434 23 -21 13
-44 39 -55 62 l-18 39 -435 1 c-381 0 -439 -2 -468 -17z m406 -259 c29 -20 29
-59 -2 -79 -55 -37 -109 41 -54 79 12 9 25 16 28 16 3 0 16 -7 28 -16z m622
-54 c25 -25 25 -41 0 -68 -26 -28 -44 -28 -70 0 -22 24 -19 54 8 76 22 17 39
15 62 -8z m258 -232 c7 -7 12 -25 12 -40 0 -52 -83 -63 -96 -13 -9 35 12 65
44 65 16 0 33 -5 40 -12z m-628 -88 c12 -23 4 -47 -22 -61 -26 -14 -57 -2 -68
27 -12 30 -5 49 23 61 26 12 52 2 67 -27z m-438 -102 c30 -24 31 -54 3 -76
-28 -22 -51 -20 -72 6 -18 22 -16 39 7 62 23 23 40 25 62 8z m1116 -70 c19
-19 15 -66 -7 -78 -52 -27 -97 12 -73 65 13 27 58 35 80 13z m-630 -404 c21
-46 -23 -88 -67 -65 -48 26 -30 91 25 91 23 0 34 -6 42 -26z"/>
<path d="M4897 2423 c-11 -10 -8 -73 3 -73 6 0 10 18 10 40 0 41 -2 45 -13 33z"/>
<path d="M3516 2321 c-16 -17 -26 -34 -22 -38 9 -9 59 42 55 56 -3 7 -17 -1
-33 -18z"/>
<path d="M3732 2109 c-35 -32 -62 -63 -60 -69 2 -6 32 19 68 55 35 35 62 66
59 69 -2 2 -33 -22 -67 -55z"/>
<path d="M3760 2065 c-35 -36 -58 -65 -50 -65 15 0 130 108 130 122 0 18 -19
5 -80 -57z"/>
<path d="M3801 2029 c-36 -32 -62 -62 -58 -66 4 -4 35 21 69 55 34 34 60 63
58 66 -3 2 -34 -23 -69 -55z"/>
<path d="M4175 1788 c-10 -33 -55 -78 -92 -94 -26 -11 -149 -14 -658 -14 -690
0 -665 -2 -723 64 l-32 37 0 -44 c0 -53 30 -102 80 -131 34 -21 47 -21 681
-21 l646 0 36 28 c47 35 63 67 72 140 7 58 2 76 -10 35z"/>
<path d="M5014 1466 c4 -45 12 -67 34 -95 50 -62 64 -66 297 -69 244 -4 302 1
346 31 51 35 70 67 75 133 l6 59 -24 -40 c-13 -22 -39 -50 -57 -62 -33 -23
-40 -23 -301 -23 -261 0 -268 0 -301 23 -18 12 -44 40 -57 62 l-24 40 6 -59z"/>
<path d="M3842 1440 c-36 -16 -47 -29 -65 -70 l-21 -50 -268 0 c-172 0 -268
-4 -268 -10 0 -6 96 -10 268 -10 l267 0 23 -49 c17 -39 32 -54 65 -70 55 -27
90 -26 138 1 41 23 79 85 79 129 0 42 -42 111 -80 131 -44 23 -84 23 -138 -2z"/>
<path d="M2830 1310 c0 -6 55 -10 145 -10 90 0 145 4 145 10 0 6 -55 10 -145
10 -90 0 -145 -4 -145 -10z"/>
<path d="M3162 1108 c3 -166 8 -181 62 -214 28 -17 59 -19 350 -22 214 -2 322
0 329 7 8 8 -85 11 -310 11 -208 0 -331 4 -352 11 -52 18 -61 49 -61 214 0 98
-4 145 -11 145 -7 0 -10 -47 -7 -152z"/>
<path d="M2472 987 c-3 -177 -21 -197 -182 -207 l-105 -7 98 -1 c109 -2 154
11 182 54 13 20 15 48 12 147 l-3 122 -2 -108z"/>
<path d="M1652 1064 c-13 -23 -3 -52 20 -59 22 -8 48 11 48 34 0 38 -51 56
-68 25z"/>
<path d="M2182 652 c-4 -29 -47 -75 -86 -93 -38 -17 -72 -19 -411 -19 -365 0
-371 0 -415 23 -25 12 -55 37 -67 56 l-23 34 0 -44 c0 -52 32 -111 76 -139 27
-19 50 -20 428 -20 398 0 400 0 433 23 45 30 75 94 70 149 -2 24 -4 37 -5 30z"/>
</g>
</svg>
